<?xml version="1.0" standalone="no"?>
<!DOCTYPE svg PUBLIC "-//W3C//DTD SVG 20010904//EN"
 "http://www.w3.org/TR/2001/REC-SVG-20010904/DTD/svg10.dtd">
<svg version="1.0" xmlns="http://www.w3.org/2000/svg"
 width="3508.000000pt" height="3508.000000pt" viewBox="0 0 3508.000000 3508.000000"
 preserveAspectRatio="xMidYMid meet">

<g transform="translate(0.000000,3508.000000) scale(0.100000,-0.100000)"
fill="#000000" stroke="none">
<path d="M16960 31090 c-499 -28 -1087 -88 -1659 -171 -2095 -302 -3946 -910
-5631 -1847 -1204 -670 -2294 -1475 -3185 -2353 -583 -574 -979 -1024 -1421
-1614 -1447 -1929 -2292 -4042 -2533 -6330 -64 -605 -89 -1364 -50 -1479 21
-62 75 -111 142 -131 54 -15 862 -17 12105 -18 11421 -2 12050 -3 12110 -19
166 -47 240 -119 289 -283 17 -57 18 -236 23 -3410 3 -1842 2 -3417 -2 -3499
-30 -593 -239 -1114 -623 -1556 -102 -117 -267 -277 -460 -445 -38 -33 -105
-92 -149 -130 -187 -163 -466 -387 -691 -556 -1966 -1475 -4209 -2314 -6760
-2529 -844 -71 -1437 -48 -2605 100 -864 110 -1570 267 -2325 518 -1324 440
-2601 1108 -3700 1936 -660 496 -1205 1001 -1868 1728 -64 71 -102 104 -142
124 l-55 27 -793 1 c-533 2 -837 6 -931 15 -159 14 -219 6 -261 -36 -25 -26
-33 -74 -17 -100 8 -13 225 -243 427 -453 2110 -2194 4977 -3716 8160 -4329
1124 -217 2300 -323 3405 -308 234 4 504 11 600 17 1754 107 3423 449 4925
1010 2623 979 4750 2480 6406 4520 881 1085 1569 2239 2054 3445 482 1197 754
2412 845 3775 18 266 25 859 11 931 -22 113 -66 166 -166 200 -34 12 -1902 14
-12055 14 -11373 0 -12019 1 -12088 17 -190 46 -281 136 -330 328 -16 60 -17
316 -17 3480 0 3225 1 3422 18 3540 92 648 342 1145 812 1616 211 211 447 409
940 786 1441 1101 2993 1855 4705 2283 1761 441 3476 511 5260 214 925 -154
1811 -399 2635 -729 385 -154 537 -223 925 -417 764 -381 1284 -714 2255
-1442 721 -540 1109 -951 1376 -1457 58 -109 79 -138 124 -162 27 -16 129 -17
1143 -20 l1112 -3 25 25 c17 18 25 36 25 61 0 33 -15 52 -182 228 -642 677
-1228 1204 -1883 1693 -2189 1637 -4727 2664 -7520 3043 -405 55 -776 94
-1310 137 -231 19 -1188 28 -1445 14z"/>
</g>
</svg>
